<svg width="22" height="22" viewBox="0 0 22 22" fill="none" xmlns="http://www.w3.org/2000/svg">
<path d="M16.1445 0.739258C16.8647 0.739258 17.449 1.32286 17.4492 2.04297V21.2598H4.54785V2.04297C4.54807 1.32299 5.13158 0.739472 5.85156 0.739258H16.1445Z" stroke="#756DE5" stroke-width="0.521683"/>
<path d="M20.4775 7.40625C20.9096 7.40625 21.2606 7.75639 21.2607 8.18848V20.4785C21.2605 20.9105 20.9096 21.2607 20.4775 21.2607H17.8818V8.18848C17.8819 7.75646 18.232 7.40636 18.6641 7.40625H20.4775Z" stroke="#756DE5" stroke-width="0.521683"/>
<path d="M1.52148 10.2627C1.08937 10.2627 0.738388 10.6128 0.738281 11.0449V20.4775C0.738281 20.9097 1.08931 21.2598 1.52148 21.2598H4.11719V11.0449C4.11708 10.6129 3.76698 10.2628 3.33496 10.2627H1.52148Z" stroke="#756DE5" stroke-width="0.521683"/>
<rect x="7.66699" y="3.85645" width="6.666" height="1.90469" rx="0.782524" fill="#756DE5"/>
<rect x="7.66699" y="7.66699" width="6.666" height="1.90469" rx="0.782524" fill="#756DE5"/>
<rect x="7.66699" y="11.4775" width="6.666" height="1.90469" rx="0.782524" fill="#756DE5"/>
<rect x="7.66699" y="15.2852" width="6.666" height="1.90469" rx="0.782524" fill="#756DE5"/>
</svg>
