<svg width="16" height="15" viewBox="0 0 16 15" fill="none" xmlns="http://www.w3.org/2000/svg">
<path d="M10.4 10H11.6C11.8 10 12 9.75 12 9.5V4.25C12 4 11.8 3.75 11.6 3.75H10.4C10.2 3.75 10 4 10 4.25V9.5C10 9.75 10.2 10 10.4 10ZM13.4 10H14.6C14.8 10 15 9.75 15 9.5V0.5C15 0.25 14.8 0 14.6 0H13.4C13.2 0 13 0.25 13 0.5V9.5C13 9.75 13.2 10 13.4 10ZM4.4 10H5.6C5.8 10 6 9.75 6 9.5V6.75C6 6.5 5.8 6.25 5.6 6.25H4.4C4.2 6.25 4 6.5 4 6.75V9.5C4 9.75 4.2 10 4.4 10ZM7.4 10H8.6C8.8 10 9 9.75 9 9.5V1.75C9 1.5 8.8 1.25 8.6 1.25H7.4C7.2 1.25 7 1.5 7 1.75V9.5C7 9.75 7.2 10 7.4 10ZM15.5 12.5H2V0.625C2 0.279688 1.77625 0 1.5 0H0.5C0.22375 0 0 0.279688 0 0.625V13.75C0 14.4402 0.447813 15 1 15H15.5C15.7763 15 16 14.7203 16 14.375V13.125C16 12.7797 15.7763 12.5 15.5 12.5Z" fill="white"/>
</svg>
