<svg width="30" height="14" viewBox="0 0 30 14" fill="none" xmlns="http://www.w3.org/2000/svg">
<path d="M9.696 12.824C9.38667 12.9307 9.01867 13.0213 8.592 13.096C8.176 13.1707 7.68 13.208 7.104 13.208C6.18667 13.208 5.344 13.0587 4.576 12.76C3.81867 12.4507 3.168 12.0187 2.624 11.464C2.08 10.8987 1.65333 10.2267 1.344 9.448C1.04533 8.65867 0.896 7.784 0.896 6.824C0.896 5.88533 1.04533 5.02667 1.344 4.248C1.65333 3.45867 2.08 2.78667 2.624 2.232C3.168 1.66667 3.81867 1.22933 4.576 0.919999C5.344 0.610666 6.18667 0.455999 7.104 0.455999C7.584 0.455999 8.048 0.487999 8.496 0.551999C8.944 0.605332 9.36 0.690666 9.744 0.808C9.89333 0.861333 9.968 0.925333 9.968 0.999999C9.97867 1.07467 9.984 1.16533 9.984 1.272L9.952 2.648C9.952 2.82933 9.90933 2.93067 9.824 2.952C9.73867 2.97333 9.6 2.95733 9.408 2.904C8.928 2.76533 8.496 2.67467 8.112 2.632C7.73867 2.57867 7.34933 2.552 6.944 2.552C6.34667 2.552 5.808 2.65867 5.328 2.872C4.85867 3.07467 4.45867 3.368 4.128 3.752C3.79733 4.12533 3.54133 4.57333 3.36 5.096C3.18933 5.61867 3.104 6.19467 3.104 6.824C3.104 7.44267 3.2 8.01333 3.392 8.536C3.584 9.048 3.85067 9.496 4.192 9.88C4.53333 10.2533 4.93333 10.5573 5.392 10.792C5.86133 11.016 6.37333 11.1547 6.928 11.208C7.44 11.2613 7.93067 11.2453 8.4 11.16C8.86933 11.064 9.25333 10.9627 9.552 10.856C9.69067 10.8027 9.78133 10.792 9.824 10.824C9.86667 10.8453 9.89333 10.9093 9.904 11.016L9.984 12.456C9.99467 12.5733 9.97867 12.6533 9.936 12.696C9.89333 12.7387 9.81333 12.7813 9.696 12.824ZM21.166 11.416C20.6647 12.0453 20.0727 12.5093 19.39 12.808C18.7073 13.1067 17.934 13.256 17.07 13.256C16.11 13.256 15.2833 13.0853 14.59 12.744C13.9073 12.392 13.342 11.9227 12.894 11.336C12.4567 10.7387 12.1313 10.056 11.918 9.288C11.7153 8.50933 11.614 7.69333 11.614 6.84C11.614 6.008 11.7207 5.208 11.934 4.44C12.1473 3.66133 12.478 2.97867 12.926 2.392C13.374 1.79467 13.9393 1.32 14.622 0.967999C15.3047 0.616 16.1207 0.44 17.07 0.44C18.0087 0.44 18.8193 0.621333 19.502 0.983999C20.1847 1.336 20.75 1.81067 21.198 2.408C21.646 2.99467 21.9767 3.672 22.19 4.44C22.414 5.208 22.5207 6.008 22.51 6.84C22.4993 7.77867 22.3873 8.632 22.174 9.4C21.9607 10.1573 21.6247 10.8293 21.166 11.416ZM17.07 2.424C16.5153 2.424 16.0353 2.552 15.63 2.808C15.2353 3.05333 14.9047 3.384 14.638 3.8C14.382 4.216 14.19 4.69067 14.062 5.224C13.9447 5.74667 13.886 6.28533 13.886 6.84C13.886 7.39467 13.9447 7.93867 14.062 8.472C14.19 8.99467 14.382 9.464 14.638 9.88C14.9047 10.296 15.2353 10.632 15.63 10.888C16.0353 11.144 16.5153 11.272 17.07 11.272C17.614 11.272 18.0833 11.144 18.478 10.888C18.8833 10.632 19.214 10.296 19.47 9.88C19.726 9.464 19.9127 8.98933 20.03 8.456C20.158 7.92267 20.222 7.384 20.222 6.84C20.222 6.30667 20.158 5.77867 20.03 5.256C19.9127 4.72267 19.726 4.248 19.47 3.832C19.214 3.416 18.8887 3.08 18.494 2.824C18.0993 2.55733 17.6247 2.424 17.07 2.424ZM24.2798 13.036C24.1678 13.036 24.0878 13.024 24.0398 13C23.9918 12.976 23.9678 12.908 23.9678 12.796V11.944C23.9678 11.856 23.9878 11.784 24.0278 11.728C24.0678 11.664 24.1158 11.6 24.1718 11.536L25.9238 9.424C26.5718 8.64 27.0398 8 27.3278 7.504C27.6158 7.008 27.7598 6.612 27.7598 6.316C27.7598 5.988 27.6718 5.728 27.4958 5.536C27.3278 5.344 27.0838 5.232 26.7638 5.2C26.4598 5.168 26.1518 5.2 25.8398 5.296C25.5278 5.392 25.1798 5.548 24.7958 5.764C24.6838 5.828 24.6038 5.852 24.5558 5.836C24.5158 5.812 24.4878 5.764 24.4718 5.692L24.2558 4.636C24.2398 4.572 24.2398 4.52 24.2558 4.48C24.2798 4.44 24.3398 4.388 24.4358 4.324C24.5878 4.22 24.7598 4.128 24.9518 4.048C25.1438 3.96 25.3398 3.888 25.5398 3.832C25.7478 3.768 25.9518 3.724 26.1518 3.7C26.3518 3.668 26.5318 3.652 26.6918 3.652C27.0758 3.652 27.4358 3.708 27.7718 3.82C28.1158 3.932 28.4118 4.1 28.6598 4.324C28.9078 4.54 29.1038 4.812 29.2478 5.14C29.3918 5.468 29.4638 5.848 29.4638 6.28C29.4638 6.656 29.3838 7.032 29.2238 7.408C29.0638 7.784 28.8678 8.152 28.6358 8.512C28.4038 8.864 28.1518 9.204 27.8798 9.532C27.6158 9.852 27.3758 10.144 27.1598 10.408C27.0238 10.584 26.8598 10.776 26.6678 10.984C26.4838 11.192 26.3158 11.384 26.1638 11.56H29.3318C29.4518 11.56 29.5238 11.58 29.5478 11.62C29.5798 11.66 29.5958 11.736 29.5958 11.848V12.748C29.5958 12.868 29.5798 12.948 29.5478 12.988C29.5158 13.02 29.4438 13.036 29.3318 13.036H24.2798Z" fill="white"/>
</svg>
