<svg width="26" height="26" viewBox="0 0 26 26" fill="none" xmlns="http://www.w3.org/2000/svg">
<circle cx="13" cy="13" r="12.7476" stroke="#23D493" stroke-width="0.504854"/>
<path d="M19.65 16.125H14.3462C14.33 16.5119 14.0244 16.75 13.63 16.75H12.3C11.8912 16.75 11.5777 16.4088 11.5832 16.125H6.35C6.1575 16.125 6 16.2656 6 16.4375V16.75C6 17.4375 6.63 18 7.4 18H18.6C19.37 18 20 17.4375 20 16.75V16.4375C20 16.2656 19.8425 16.125 19.65 16.125ZM18.6 8.9375C18.6 8.42188 18.1275 8 17.55 8H8.45C7.8725 8 7.4 8.42188 7.4 8.9375V15.5H18.6V8.9375ZM17.2 14.25H8.8V9.25H17.2V14.25Z" fill="#23D493"/>
</svg>
