<svg width="26" height="26" viewBox="0 0 26 26" fill="none" xmlns="http://www.w3.org/2000/svg">
<circle cx="13" cy="13" r="12.7476" stroke="#23D493" stroke-width="0.504854"/>
<path d="M13.0557 7.50195L18.7871 7.50684L18.8359 7.52832L18.8447 7.53223C19.1264 7.64674 19.3242 7.84908 19.4512 8.17383V8.17285L19.4824 8.25586L19.4883 9.6748L19.4922 10.6885H6.5V9.75879C6.5 9.17392 6.50179 8.81555 6.50684 8.58594C6.51172 8.36373 6.51935 8.29034 6.52441 8.26172C6.60804 7.9137 6.89268 7.61559 7.18359 7.53027L7.18164 7.53125C7.18164 7.53125 7.18435 7.53111 7.19043 7.53027C7.20646 7.52809 7.23941 7.52482 7.30273 7.52148C7.43028 7.51479 7.64846 7.5093 8.04395 7.50586C8.83248 7.49901 10.2913 7.4989 13.0557 7.50195Z" fill="#23D493" stroke="#23D493"/>
<path d="M6.79102 12.2812C6.58568 12.635 6.65589 13.1306 7.05566 13.375V13.374C7.13284 13.4223 7.20638 13.4439 7.25391 13.4541C7.30947 13.466 7.36833 13.4716 7.42285 13.4756C7.53462 13.4837 7.7062 13.4882 7.9707 13.4912C8.50586 13.4974 9.4771 13.498 11.248 13.498C13.0194 13.498 13.9887 13.4962 14.5234 13.4893C14.7881 13.4858 14.9578 13.4813 15.0684 13.4736C15.1431 13.4684 15.2993 13.4594 15.4365 13.377L15.4395 13.375C15.506 13.3343 15.5628 13.2843 15.6123 13.2295C15.6348 13.2556 15.6605 13.2824 15.6904 13.3076C15.7808 13.3838 15.8791 13.4269 15.9707 13.4521C16.1247 13.4945 16.3124 13.498 16.4951 13.498C16.638 13.498 16.7576 13.4947 16.8545 13.4834C16.9586 13.4712 17.0759 13.4454 17.1914 13.374L17.1904 13.373C17.2563 13.3326 17.3132 13.2839 17.3623 13.2295C17.3847 13.2555 17.4097 13.2825 17.4395 13.3076C17.5298 13.3838 17.6281 13.4269 17.7197 13.4521C17.8738 13.4945 18.0623 13.498 18.2451 13.498C18.3878 13.498 18.5067 13.4947 18.6035 13.4834C18.7075 13.4712 18.825 13.4453 18.9404 13.374L18.9395 13.373C19.3173 13.1408 19.4253 12.6458 19.208 12.2812H19.4902L19.4883 12.3818C19.4822 12.677 19.4782 12.8091 19.4697 12.8906C19.4643 12.9428 19.4588 12.96 19.4346 13.0283C19.3694 13.1946 19.2639 13.3496 19.1631 13.4424L19.1621 13.4434C19.1253 13.4772 19.0442 13.533 18.9336 13.5859C18.8237 13.6386 18.7272 13.6683 18.6729 13.6768L18.665 13.6787L18.6562 13.6797C18.6857 13.6742 18.6873 13.6766 18.6006 13.6797C18.5342 13.682 18.4386 13.6846 18.3125 13.6865C18.0609 13.6904 17.6957 13.6934 17.2119 13.6953C16.2446 13.6991 14.809 13.6984 12.873 13.6953L7.28125 13.6895L7.17188 13.6484L7.16992 13.6475L7.0752 13.6074C6.86309 13.5054 6.70697 13.3438 6.61719 13.1553L6.61621 13.1523L6.55273 13.0059C6.53854 12.9644 6.53022 12.9266 6.52344 12.8838C6.50674 12.7781 6.5 12.6271 6.5 12.3252V12.2812H6.79102Z" fill="#23D493" stroke="#23D493"/>
<mask id="path-4-inside-1_1051_62" fill="white">
<path d="M8.17016 14.8492C8.05749 14.9226 7.86774 15.2159 7.81437 15.4115C7.74915 15.6316 7.75508 15.9922 7.83216 16.2734C7.86774 16.3956 7.97448 16.7135 8.06935 16.9824C8.27689 17.557 8.33026 17.7403 8.33026 17.9482C8.33026 18.156 8.28282 18.3027 8.17609 18.431C8.06342 18.5655 8.03377 18.6694 8.06342 18.7917C8.09307 18.9139 8.20573 18.9995 8.33619 18.9995C8.48443 18.9995 8.65639 18.8283 8.78091 18.5655C9.00031 18.101 8.96473 17.7037 8.62674 16.8052C8.29468 15.9128 8.27689 15.6316 8.53187 15.3199C8.63267 15.1976 8.64453 15.0692 8.57338 14.9531C8.4785 14.7942 8.3184 14.7575 8.17016 14.8492Z"/>
</mask>
<path d="M8.17016 14.8492C8.05749 14.9226 7.86774 15.2159 7.81437 15.4115C7.74915 15.6316 7.75508 15.9922 7.83216 16.2734C7.86774 16.3956 7.97448 16.7135 8.06935 16.9824C8.27689 17.557 8.33026 17.7403 8.33026 17.9482C8.33026 18.156 8.28282 18.3027 8.17609 18.431C8.06342 18.5655 8.03377 18.6694 8.06342 18.7917C8.09307 18.9139 8.20573 18.9995 8.33619 18.9995C8.48443 18.9995 8.65639 18.8283 8.78091 18.5655C9.00031 18.101 8.96473 17.7037 8.62674 16.8052C8.29468 15.9128 8.27689 15.6316 8.53187 15.3199C8.63267 15.1976 8.64453 15.0692 8.57338 14.9531C8.4785 14.7942 8.3184 14.7575 8.17016 14.8492Z" fill="#23D493"/>
<path d="M8.17016 14.8492L7.64415 13.9987L7.63428 14.0048L7.62456 14.0112L8.17016 14.8492ZM7.81437 15.4115L8.77314 15.6957L8.77624 15.6853L8.77911 15.6748L7.81437 15.4115ZM7.83216 16.2734L6.86775 16.5378L6.86982 16.5453L6.872 16.5528L7.83216 16.2734ZM8.06935 16.9824L7.12628 17.3151L7.12883 17.3221L8.06935 16.9824ZM8.17609 18.431L8.94262 19.0733L8.94499 19.0704L8.17609 18.431ZM8.78091 18.5655L9.68462 18.9937L9.68514 18.9926L8.78091 18.5655ZM8.62674 16.8052L7.68952 17.1539L7.69077 17.1572L8.62674 16.8052ZM8.53187 15.3199L7.76034 14.6837L7.75782 14.6867L8.53187 15.3199ZM8.57338 14.9531L7.71469 15.4657L7.7207 15.4756L8.57338 14.9531ZM8.17016 14.8492L7.62456 14.0112C7.47444 14.1089 7.367 14.2283 7.31004 14.2959C7.24158 14.3771 7.17976 14.4639 7.1268 14.547C7.03018 14.6985 6.91296 14.9162 6.84964 15.1483L7.81437 15.4115L8.77911 15.6748C8.77677 15.6833 8.7748 15.6895 8.77361 15.693C8.7724 15.6966 8.77168 15.6984 8.77166 15.6985C8.77162 15.6986 8.77207 15.6974 8.77311 15.6951C8.77414 15.6927 8.7756 15.6895 8.77754 15.6855C8.78605 15.6678 8.79863 15.645 8.81325 15.6221C8.82023 15.6111 8.82655 15.6019 8.83168 15.5949C8.83697 15.5876 8.8396 15.5845 8.83904 15.5851C8.83904 15.5851 8.83181 15.5938 8.81706 15.608C8.80937 15.6153 8.79776 15.626 8.7823 15.6387C8.76714 15.6511 8.74486 15.6683 8.71575 15.6873L8.17016 14.8492ZM7.81437 15.4115L6.85561 15.1273C6.7263 15.5636 6.75282 16.1186 6.86775 16.5378L7.83216 16.2734L8.79658 16.009C8.78307 15.9597 8.77132 15.8829 8.76971 15.8001C8.76896 15.7611 8.77065 15.7289 8.7731 15.7061C8.77577 15.6812 8.77804 15.6792 8.77314 15.6957L7.81437 15.4115ZM7.83216 16.2734L6.872 16.5528C6.9163 16.705 7.0317 17.0469 7.12631 17.3151L8.06935 16.9824L9.01239 16.6497C8.91725 16.38 8.81918 16.0862 8.79233 15.9939L7.83216 16.2734ZM8.06935 16.9824L7.12883 17.3221C7.23417 17.6138 7.28585 17.7671 7.31305 17.8666C7.32516 17.9109 7.32862 17.9312 7.32958 17.9376C7.33011 17.9412 7.33026 17.9423 7.33026 17.9482H8.33026H9.33026C9.33026 17.5318 9.20225 17.1753 9.00987 16.6427L8.06935 16.9824ZM8.33026 17.9482H7.33026C7.33026 17.977 7.32682 17.9582 7.34084 17.9144C7.34789 17.8924 7.35788 17.8687 7.37088 17.8453C7.38378 17.8221 7.39686 17.8041 7.40718 17.7917L8.17609 18.431L8.94499 19.0704C9.23281 18.7243 9.33026 18.3345 9.33026 17.9482H8.33026ZM8.17609 18.431L7.40956 17.7888C7.30444 17.9143 7.18122 18.0914 7.11025 18.323C7.03325 18.5743 7.04015 18.8152 7.09159 19.0274L8.06342 18.7917L9.03525 18.556C9.05705 18.6459 9.06394 18.7737 9.02252 18.9089C8.98713 19.0244 8.93507 19.0823 8.94261 19.0733L8.17609 18.431ZM8.06342 18.7917L7.09159 19.0274C7.23627 19.6239 7.7713 19.9995 8.33619 19.9995V18.9995V17.9995C8.64017 17.9995 8.94987 18.2039 9.03525 18.556L8.06342 18.7917ZM8.33619 18.9995V19.9995C8.78729 19.9995 9.10619 19.7534 9.26783 19.5948C9.44953 19.4165 9.58594 19.202 9.68462 18.9937L8.78091 18.5655L7.87721 18.1374C7.85137 18.1919 7.83954 18.1943 7.86706 18.1673C7.88197 18.1527 7.92184 18.1164 7.99085 18.0806C8.06051 18.0446 8.17928 17.9995 8.33619 17.9995V18.9995ZM8.78091 18.5655L9.68514 18.9926C9.86355 18.6148 9.94964 18.2226 9.90901 17.7605C9.87274 17.3481 9.73756 16.9179 9.56271 16.4531L8.62674 16.8052L7.69077 17.1572C7.85391 17.5909 7.90553 17.8087 7.91669 17.9357C7.9235 18.013 7.91768 18.0517 7.87669 18.1385L8.78091 18.5655ZM8.62674 16.8052L9.56396 16.4564C9.48459 16.2431 9.43184 16.087 9.39814 15.968C9.36388 15.847 9.35794 15.7937 9.35714 15.7811C9.35698 15.7786 9.3592 15.8218 9.33785 15.8838C9.31762 15.9425 9.2929 15.9689 9.30592 15.953L8.53187 15.3199L7.75782 14.6867C7.64334 14.8267 7.52523 15.0051 7.44701 15.2321C7.36765 15.4623 7.34727 15.6901 7.36119 15.9084C7.38588 16.2955 7.52736 16.7181 7.68952 17.1539L8.62674 16.8052ZM8.53187 15.3199L9.30339 15.9561C9.4503 15.7779 9.57949 15.5369 9.61135 15.2414C9.64407 14.9378 9.56501 14.6575 9.42605 14.4307L8.57338 14.9531L7.7207 15.4756C7.65289 15.3649 7.60348 15.2068 7.62287 15.027C7.64138 14.8552 7.71424 14.7396 7.76034 14.6837L8.53187 15.3199ZM8.57338 14.9531L9.432 14.4405C9.2732 14.1745 9.00637 13.9299 8.63391 13.8369C8.26125 13.7439 7.90955 13.8346 7.64415 13.9987L8.17016 14.8492L8.69616 15.6997C8.57901 15.7721 8.38147 15.8353 8.14964 15.7774C7.91802 15.7196 7.77868 15.5728 7.71475 15.4657L8.57338 14.9531Z" fill="#23D493" mask="url(#path-4-inside-1_1051_62)"/>
<mask id="path-6-inside-2_1051_62" fill="white">
<path d="M10.4885 14.8492C10.3758 14.9226 10.1861 15.2159 10.1327 15.4115C10.0675 15.6255 10.0793 15.9861 10.1505 16.2734C10.1861 16.3956 10.2869 16.7135 10.3877 16.9824C10.5952 17.557 10.6486 17.7403 10.6486 17.9482C10.6486 18.156 10.6011 18.3027 10.4944 18.431C10.3817 18.5655 10.3521 18.6694 10.3817 18.7917C10.4114 18.9139 10.5241 18.9995 10.6545 18.9995C10.8027 18.9995 10.9747 18.8283 11.0992 18.5655C11.3186 18.101 11.2831 17.6914 10.9391 16.7807C10.613 15.925 10.5952 15.6316 10.8502 15.3199C10.951 15.1976 10.9629 15.0692 10.8917 14.9531C10.8027 14.7942 10.6426 14.7575 10.4885 14.8492Z"/>
</mask>
<path d="M10.4885 14.8492C10.3758 14.9226 10.1861 15.2159 10.1327 15.4115C10.0675 15.6255 10.0793 15.9861 10.1505 16.2734C10.1861 16.3956 10.2869 16.7135 10.3877 16.9824C10.5952 17.557 10.6486 17.7403 10.6486 17.9482C10.6486 18.156 10.6011 18.3027 10.4944 18.431C10.3817 18.5655 10.3521 18.6694 10.3817 18.7917C10.4114 18.9139 10.5241 18.9995 10.6545 18.9995C10.8027 18.9995 10.9747 18.8283 11.0992 18.5655C11.3186 18.101 11.2831 17.6914 10.9391 16.7807C10.613 15.925 10.5952 15.6316 10.8502 15.3199C10.951 15.1976 10.9629 15.0692 10.8917 14.9531C10.8027 14.7942 10.6426 14.7575 10.4885 14.8492Z" fill="#23D493"/>
<path d="M10.4885 14.8492L9.97734 13.9897L9.95989 14.0001L9.94288 14.0112L10.4885 14.8492ZM10.1327 15.4115L11.0892 15.7032L11.0935 15.689L11.0974 15.6748L10.1327 15.4115ZM10.1505 16.2734L9.17982 16.5138L9.18467 16.5334L9.19032 16.5528L10.1505 16.2734ZM10.3877 16.9824L11.3283 16.6427L11.3241 16.6314L10.3877 16.9824ZM10.4944 18.431L11.2609 19.0733L11.2633 19.0704L10.4944 18.431ZM11.0992 18.5655L12.0029 18.9937L12.0035 18.9926L11.0992 18.5655ZM10.9391 16.7807L11.8747 16.4274L11.8736 16.4246L10.9391 16.7807ZM10.8502 15.3199L10.0787 14.6837L10.0761 14.6867L10.8502 15.3199ZM10.8917 14.9531L10.0191 15.4415L10.0287 15.4587L10.039 15.4756L10.8917 14.9531ZM10.4885 14.8492L9.94288 14.0112C9.79276 14.1089 9.68532 14.2283 9.62836 14.2959C9.5599 14.3771 9.49808 14.4639 9.44512 14.547C9.3485 14.6985 9.23128 14.9162 9.16796 15.1483L10.1327 15.4115L11.0974 15.6748C11.0951 15.6833 11.0931 15.6895 11.0919 15.693C11.0907 15.6966 11.09 15.6984 11.09 15.6985C11.0899 15.6986 11.0904 15.6974 11.0914 15.6951C11.0925 15.6927 11.0939 15.6895 11.0959 15.6855C11.1044 15.6678 11.1169 15.645 11.1316 15.6221C11.1386 15.6111 11.1449 15.6019 11.15 15.5949C11.1553 15.5876 11.1579 15.5845 11.1574 15.5851C11.1574 15.5851 11.1501 15.5938 11.1354 15.608C11.1277 15.6153 11.1161 15.626 11.1006 15.6387C11.0855 15.6511 11.0632 15.6683 11.0341 15.6873L10.4885 14.8492ZM10.1327 15.4115L9.17617 15.1199C9.03964 15.5677 9.08367 16.1256 9.17982 16.5138L10.1505 16.2734L11.1212 16.033C11.1044 15.9653 11.0922 15.8761 11.0902 15.7907C11.0892 15.7496 11.0907 15.7179 11.0928 15.6972C11.0952 15.6739 11.0968 15.6782 11.0892 15.7032L10.1327 15.4115ZM10.1505 16.2734L9.19032 16.5528C9.23179 16.6953 9.34034 17.0374 9.45129 17.3334L10.3877 16.9824L11.3241 16.6314C11.2334 16.3896 11.1403 16.096 11.1106 15.9939L10.1505 16.2734ZM10.3877 16.9824L9.44715 17.3221C9.55249 17.6138 9.60417 17.7671 9.63137 17.8666C9.64348 17.9109 9.64694 17.9312 9.6479 17.9376C9.64843 17.9412 9.64858 17.9423 9.64858 17.9482H10.6486H11.6486C11.6486 17.5318 11.5206 17.1753 11.3282 16.6427L10.3877 16.9824ZM10.6486 17.9482H9.64858C9.64858 17.977 9.64514 17.9582 9.65916 17.9144C9.66621 17.8924 9.6762 17.8687 9.6892 17.8453C9.7021 17.8221 9.71518 17.8041 9.7255 17.7917L10.4944 18.431L11.2633 19.0704C11.5511 18.7243 11.6486 18.3345 11.6486 17.9482H10.6486ZM10.4944 18.431L9.72788 17.7888C9.62276 17.9143 9.49954 18.0914 9.42857 18.323C9.35157 18.5743 9.35847 18.8152 9.40991 19.0274L10.3817 18.7917L11.3536 18.556C11.3754 18.6459 11.3823 18.7737 11.3408 18.9089C11.3055 19.0244 11.2534 19.0823 11.2609 19.0733L10.4944 18.431ZM10.3817 18.7917L9.40991 19.0274C9.55459 19.6239 10.0896 19.9995 10.6545 19.9995V18.9995V17.9995C10.9585 17.9995 11.2682 18.2039 11.3536 18.556L10.3817 18.7917ZM10.6545 18.9995V19.9995C11.1056 19.9995 11.4245 19.7534 11.5861 19.5948C11.7678 19.4165 11.9043 19.202 12.0029 18.9937L11.0992 18.5655L10.1955 18.1374C10.1697 18.1919 10.1579 18.1943 10.1854 18.1673C10.2003 18.1527 10.2402 18.1164 10.3092 18.0806C10.3788 18.0446 10.4976 17.9995 10.6545 17.9995V18.9995ZM11.0992 18.5655L12.0035 18.9926C12.1834 18.6115 12.2679 18.2157 12.2265 17.7516C12.1894 17.3355 12.0532 16.9001 11.8747 16.4274L10.9391 16.7807L10.0036 17.134C10.169 17.572 10.2226 17.7968 10.2344 17.9293C10.2419 18.0137 10.2345 18.0549 10.195 18.1385L11.0992 18.5655ZM10.9391 16.7807L11.8736 16.4246C11.7964 16.2222 11.7456 16.0738 11.7135 15.9611C11.6808 15.8466 11.6756 15.7964 11.6749 15.7855C11.6748 15.784 11.6767 15.8252 11.6564 15.8841C11.6371 15.9403 11.6136 15.966 11.6242 15.953L10.8502 15.3199L10.0761 14.6867C9.80635 15.0166 9.6484 15.4108 9.67859 15.907C9.70229 16.2965 9.84361 16.7142 10.0047 17.1368L10.9391 16.7807ZM10.8502 15.3199L11.6217 15.9561C11.7686 15.7779 11.8978 15.5369 11.9297 15.2414C11.9624 14.9378 11.8833 14.6575 11.7444 14.4307L10.8917 14.9531L10.039 15.4756C9.97121 15.3649 9.9218 15.2068 9.94119 15.027C9.9597 14.8552 10.0326 14.7396 10.0787 14.6837L10.8502 15.3199ZM10.8917 14.9531L11.7643 14.4647C11.6076 14.1846 11.3362 13.9317 10.9567 13.8369C10.5834 13.7438 10.2357 13.836 9.97734 13.9897L10.4885 14.8492L10.9996 15.7087C10.8954 15.7707 10.7049 15.8354 10.4724 15.7774C10.2337 15.7178 10.0869 15.5627 10.0191 15.4415L10.8917 14.9531Z" fill="#23D493" mask="url(#path-6-inside-2_1051_62)"/>
<mask id="path-8-inside-3_1051_62" fill="white">
<path d="M12.8136 14.8498C12.7069 14.917 12.523 15.2043 12.4578 15.3938C12.3451 15.73 12.4104 16.2006 12.6535 16.8485C13.0211 17.8204 13.0567 18.1382 12.8077 18.4255C12.6831 18.5722 12.6535 18.6883 12.7009 18.8106C12.7484 18.9328 12.8432 18.994 12.9678 18.994C13.1931 18.994 13.4777 18.5722 13.537 18.1627C13.5845 17.8082 13.5192 17.4964 13.2524 16.7691C13.0389 16.1884 12.9915 16.0172 12.9915 15.7911C12.9915 15.6016 13.0389 15.4671 13.1694 15.3082C13.2702 15.186 13.282 15.0576 13.2109 14.9415C13.1219 14.7948 12.9618 14.7581 12.8136 14.8498Z"/>
</mask>
<path d="M12.8136 14.8498C12.7069 14.917 12.523 15.2043 12.4578 15.3938C12.3451 15.73 12.4104 16.2006 12.6535 16.8485C13.0211 17.8204 13.0567 18.1382 12.8077 18.4255C12.6831 18.5722 12.6535 18.6883 12.7009 18.8106C12.7484 18.9328 12.8432 18.994 12.9678 18.994C13.1931 18.994 13.4777 18.5722 13.537 18.1627C13.5845 17.8082 13.5192 17.4964 13.2524 16.7691C13.0389 16.1884 12.9915 16.0172 12.9915 15.7911C12.9915 15.6016 13.0389 15.4671 13.1694 15.3082C13.2702 15.186 13.282 15.0576 13.2109 14.9415C13.1219 14.7948 12.9618 14.7581 12.8136 14.8498Z" fill="#23D493"/>
<path d="M12.8136 14.8498L12.2876 13.9993L12.2806 14.0037L12.8136 14.8498ZM12.4578 15.3938L11.5122 15.0683L11.5096 15.076L12.4578 15.3938ZM12.6535 16.8485L11.7172 17.1998L11.7182 17.2023L12.6535 16.8485ZM12.8077 18.4255L12.052 17.7704L12.0453 17.7784L12.8077 18.4255ZM13.537 18.1627L14.5268 18.306L14.5282 18.2953L13.537 18.1627ZM13.2524 16.7691L14.1912 16.4247L14.191 16.424L13.2524 16.7691ZM13.1694 15.3082L12.3978 14.672L12.3964 14.6737L13.1694 15.3082ZM13.2109 14.9415L12.3558 15.4599L12.3582 15.4639L13.2109 14.9415ZM12.8136 14.8498L12.2806 14.0037C12.1223 14.1034 12.0116 14.228 11.9584 14.2909C11.8917 14.3699 11.8319 14.4536 11.7814 14.5315C11.6862 14.678 11.5798 14.872 11.5123 15.0683L12.4578 15.3938L13.4034 15.7193C13.401 15.7262 13.4004 15.7269 13.403 15.721C13.4054 15.7155 13.4094 15.7068 13.4153 15.6954C13.4275 15.6717 13.4429 15.645 13.4589 15.6204C13.4667 15.6085 13.4734 15.5987 13.4788 15.5914C13.4843 15.5838 13.4868 15.5809 13.4858 15.5821C13.4855 15.5825 13.4771 15.5925 13.4606 15.6083C13.4519 15.6165 13.4389 15.6284 13.4216 15.6424C13.4046 15.6561 13.3795 15.6752 13.3466 15.6959L12.8136 14.8498ZM12.4578 15.3938L11.5096 15.076C11.2802 15.7607 11.4609 16.5168 11.7172 17.1998L12.6535 16.8485L13.5897 16.4972C13.4837 16.2146 13.4323 16.0112 13.4132 15.87C13.394 15.7287 13.4128 15.6911 13.406 15.7116L12.4578 15.3938ZM12.6535 16.8485L11.7182 17.2023C11.8068 17.4365 11.8684 17.6133 11.9097 17.7512C11.9517 17.8917 11.9638 17.9637 11.9668 17.9934C11.9691 18.0165 11.9618 17.9754 11.9835 17.9039C12.0067 17.8277 12.0432 17.7807 12.0521 17.7705L12.8077 18.4255L13.5633 19.0805C13.6967 18.9267 13.8221 18.7322 13.8972 18.4853C13.9708 18.243 13.9783 18.0079 13.9569 17.7941C13.9182 17.4083 13.7685 16.9698 13.5888 16.4947L12.6535 16.8485ZM12.8077 18.4255L12.0453 17.7784C11.9313 17.9126 11.7948 18.1078 11.7249 18.3647C11.6475 18.6492 11.6737 18.9276 11.7687 19.1724L12.7009 18.8106L13.6332 18.4488C13.6807 18.5713 13.698 18.7306 13.6547 18.8898C13.6189 19.0213 13.5595 19.0851 13.57 19.0727L12.8077 18.4255ZM12.7009 18.8106L11.7687 19.1724C11.8551 19.3952 12.0081 19.6162 12.2454 19.7766C12.4814 19.9361 12.7389 19.994 12.9678 19.994V18.994V17.994C13.0721 17.994 13.2199 18.0212 13.3654 18.1196C13.5123 18.2189 13.5942 18.3482 13.6332 18.4488L12.7009 18.8106ZM12.9678 18.994V19.994C13.3307 19.994 13.603 19.8306 13.7559 19.7122C13.9198 19.5852 14.0466 19.4335 14.141 19.295C14.3281 19.0205 14.4739 18.6703 14.5267 18.306L13.537 18.1627L12.5473 18.0194C12.5449 18.0359 12.5384 18.0634 12.5253 18.0965C12.5121 18.1296 12.4977 18.155 12.4883 18.1688C12.4759 18.1869 12.4856 18.1663 12.531 18.1311C12.5553 18.1123 12.6007 18.0809 12.6684 18.0526C12.7368 18.024 12.8392 17.994 12.9678 17.994V18.994ZM13.537 18.1627L14.5282 18.2953C14.6109 17.6772 14.4617 17.1621 14.1912 16.4247L13.2524 16.7691L12.3136 17.1135C12.5767 17.8308 12.558 17.9391 12.5459 18.0301L13.537 18.1627ZM13.2524 16.7691L14.191 16.424C14.0827 16.1296 14.0329 15.9819 14.0077 15.888C13.9902 15.8225 13.9915 15.8103 13.9915 15.7911H12.9915H11.9915C11.9915 16.2232 12.1096 16.5585 12.3138 17.1141L13.2524 16.7691ZM12.9915 15.7911H13.9915C13.9915 15.7853 13.9919 15.7937 13.9891 15.8116C13.9861 15.8307 13.9805 15.8548 13.9709 15.8811C13.9506 15.9366 13.9279 15.9602 13.9423 15.9427L13.1694 15.3082L12.3964 14.6737C12.2804 14.8151 12.1687 14.9855 12.0921 15.1953C12.0148 15.4073 11.9915 15.6092 11.9915 15.7911H12.9915ZM13.1694 15.3082L13.9409 15.9444C14.0878 15.7663 14.217 15.5253 14.2489 15.2297C14.2816 14.9261 14.2025 14.6458 14.0636 14.419L13.2109 14.9415L12.3582 15.4639C12.2904 15.3532 12.241 15.1952 12.2604 15.0154C12.2789 14.8436 12.3517 14.7279 12.3978 14.672L13.1694 15.3082ZM13.2109 14.9415L14.066 14.423C13.8992 14.148 13.6233 13.9157 13.2589 13.8317C12.8969 13.7484 12.5526 13.8354 12.2876 13.9993L12.8136 14.8498L13.3396 15.7003C13.2228 15.7725 13.0327 15.832 12.8101 15.7807C12.585 15.7289 12.4336 15.5883 12.3558 15.4599L13.2109 14.9415Z" fill="#23D493" mask="url(#path-8-inside-3_1051_62)"/>
<mask id="path-10-inside-4_1051_62" fill="white">
<path d="M16.5966 14.88L16.5077 14.9595L16.4958 15.6685L16.4839 16.3714L15.9384 16.0475C15.636 15.8702 15.3573 15.7174 15.3158 15.7052C15.215 15.6869 15.0905 15.7419 15.0371 15.8275C14.9837 15.913 14.9837 16.0903 15.0371 16.1697C15.0608 16.2003 15.3099 16.3653 15.5886 16.5304C15.8732 16.6954 16.1222 16.8482 16.1519 16.8665C16.1934 16.8971 16.1341 16.9399 15.6479 17.2272C15.3395 17.4105 15.0727 17.5817 15.049 17.6184C15.0193 17.655 15.0015 17.7284 15.0015 17.8017C15.0015 17.8995 15.0193 17.9423 15.0786 18.0096C15.2209 18.1563 15.2921 18.1379 15.9384 17.759L16.5017 17.4228V18.0951C16.5017 18.8225 16.5136 18.8836 16.644 18.957C16.7745 19.0242 16.9109 19.0059 16.9998 18.9142L17.0769 18.8347V18.144C17.0769 17.7467 17.0888 17.4533 17.1006 17.4533C17.1125 17.4533 17.3734 17.6 17.6699 17.7773C18.2806 18.1379 18.3518 18.1624 18.5 18.0218C18.6068 17.924 18.6305 17.7834 18.5593 17.6612C18.5238 17.6 18.3459 17.4778 17.9426 17.2394C17.4683 16.9582 17.3853 16.9032 17.4268 16.8788C17.8774 16.6221 18.4704 16.2553 18.5238 16.2003C18.7016 16.0169 18.5593 15.7052 18.2984 15.7052C18.2628 15.7052 17.9782 15.858 17.6639 16.0414L17.0947 16.3776L17.0828 15.6808C17.0769 15.2957 17.0591 14.9656 17.0473 14.935C17.0176 14.8678 16.8872 14.8006 16.7864 14.8006C16.7152 14.7945 16.65 14.825 16.5966 14.88Z"/>
</mask>
<path d="M16.5966 14.88L16.5077 14.9595L16.4958 15.6685L16.4839 16.3714L15.9384 16.0475C15.636 15.8702 15.3573 15.7174 15.3158 15.7052C15.215 15.6869 15.0905 15.7419 15.0371 15.8275C14.9837 15.913 14.9837 16.0903 15.0371 16.1697C15.0608 16.2003 15.3099 16.3653 15.5886 16.5304C15.8732 16.6954 16.1222 16.8482 16.1519 16.8665C16.1934 16.8971 16.1341 16.9399 15.6479 17.2272C15.3395 17.4105 15.0727 17.5817 15.049 17.6184C15.0193 17.655 15.0015 17.7284 15.0015 17.8017C15.0015 17.8995 15.0193 17.9423 15.0786 18.0096C15.2209 18.1563 15.2921 18.1379 15.9384 17.759L16.5017 17.4228V18.0951C16.5017 18.8225 16.5136 18.8836 16.644 18.957C16.7745 19.0242 16.9109 19.0059 16.9998 18.9142L17.0769 18.8347V18.144C17.0769 17.7467 17.0888 17.4533 17.1006 17.4533C17.1125 17.4533 17.3734 17.6 17.6699 17.7773C18.2806 18.1379 18.3518 18.1624 18.5 18.0218C18.6068 17.924 18.6305 17.7834 18.5593 17.6612C18.5238 17.6 18.3459 17.4778 17.9426 17.2394C17.4683 16.9582 17.3853 16.9032 17.4268 16.8788C17.8774 16.6221 18.4704 16.2553 18.5238 16.2003C18.7016 16.0169 18.5593 15.7052 18.2984 15.7052C18.2628 15.7052 17.9782 15.858 17.6639 16.0414L17.0947 16.3776L17.0828 15.6808C17.0769 15.2957 17.0591 14.9656 17.0473 14.935C17.0176 14.8678 16.8872 14.8006 16.7864 14.8006C16.7152 14.7945 16.65 14.825 16.5966 14.88Z" fill="#23D493"/>
<path d="M16.5966 14.88L17.2628 15.6258L17.2895 15.602L17.3144 15.5763L16.5966 14.88ZM16.5077 14.9595L15.8414 14.2137L15.5151 14.5053L15.5078 14.9428L16.5077 14.9595ZM16.4958 15.6685L17.4957 15.6854L17.4957 15.6853L16.4958 15.6685ZM16.4839 16.3714L15.9733 17.2313L17.4547 18.111L17.4838 16.3883L16.4839 16.3714ZM15.9384 16.0475L16.449 15.1877L16.4441 15.1848L15.9384 16.0475ZM15.3158 15.7052L15.5983 14.7459L15.5472 14.7309L15.4948 14.7213L15.3158 15.7052ZM15.0371 16.1697L14.2069 16.7273L14.2261 16.7558L14.2471 16.7829L15.0371 16.1697ZM15.5886 16.5304L15.079 17.3909L15.087 17.3955L15.5886 16.5304ZM16.1519 16.8665L16.7448 16.0613L16.7122 16.0373L16.6779 16.0161L16.1519 16.8665ZM15.6479 17.2272L15.1392 16.3662L15.1367 16.3677L15.6479 17.2272ZM15.049 17.6184L15.8266 18.2471L15.8599 18.2059L15.8886 18.1614L15.049 17.6184ZM15.0786 18.0096L14.3286 18.671L14.3443 18.6888L14.3609 18.7059L15.0786 18.0096ZM15.9384 17.759L16.4442 18.6216L16.4509 18.6177L15.9384 17.759ZM16.5017 17.4228H17.5017V15.6615L15.9893 16.5641L16.5017 17.4228ZM16.644 18.957L16.1539 19.8286L16.1698 19.8375L16.1859 19.8459L16.644 18.957ZM17.0769 18.8347L17.7947 19.531L18.0769 19.2401V18.8347H17.0769ZM17.6699 17.7773L17.1567 18.6356L17.1614 18.6384L17.6699 17.7773ZM18.5 18.0218L17.8245 17.2845L17.8181 17.2903L17.8119 17.2962L18.5 18.0218ZM17.9426 17.2394L17.4328 18.0996L17.4337 18.1002L17.9426 17.2394ZM17.4268 16.8788L16.9318 16.0099L16.9255 16.0135L16.9192 16.0171L17.4268 16.8788ZM17.6639 16.0414L17.16 15.1776L17.1554 15.1803L17.6639 16.0414ZM17.0947 16.3776L16.0948 16.3946L16.1241 18.1121L17.6032 17.2386L17.0947 16.3776ZM17.0828 15.6808L16.083 15.6962L16.083 15.6978L17.0828 15.6808ZM17.0473 14.935L17.9795 14.5733L17.9714 14.5522L17.9623 14.5316L17.0473 14.935ZM16.7864 14.8006L16.7008 15.7969L16.7435 15.8006H16.7864V14.8006ZM16.5966 14.88L15.9304 14.1343L15.8414 14.2137L16.5077 14.9595L17.1739 15.7052L17.2628 15.6258L16.5966 14.88ZM16.5077 14.9595L15.5078 14.9428L15.4959 15.6518L16.4958 15.6685L17.4957 15.6853L17.5075 14.9762L16.5077 14.9595ZM16.4958 15.6685L15.4959 15.6517L15.4841 16.3546L16.4839 16.3714L17.4838 16.3883L17.4957 15.6854L16.4958 15.6685ZM16.4839 16.3714L16.9945 15.5116L16.449 15.1877L15.9384 16.0475L15.4278 16.9073L15.9733 17.2313L16.4839 16.3714ZM15.9384 16.0475L16.4441 15.1848C16.2863 15.0923 16.1328 15.0051 16.0107 14.938C15.9503 14.9048 15.8929 14.874 15.8444 14.8491C15.8407 14.8472 15.7197 14.7817 15.5983 14.7459L15.3158 15.7052L15.0333 16.6645C14.9839 16.6499 14.9484 16.635 14.9412 16.632C14.9285 16.6267 14.9202 16.6228 14.9186 16.6221C14.9153 16.6205 14.9188 16.6221 14.9318 16.6287C14.9566 16.6415 14.9956 16.6622 15.0478 16.6909C15.151 16.7476 15.2881 16.8255 15.4327 16.9102L15.9384 16.0475ZM15.3158 15.7052L15.4948 14.7213C15.2107 14.6697 14.9511 14.7263 14.7562 14.8119C14.562 14.8973 14.3429 15.0509 14.1886 15.2983L15.0371 15.8275L15.8856 16.3566C15.7847 16.5185 15.6545 16.6018 15.5611 16.6428C15.467 16.6842 15.3201 16.7224 15.1368 16.6891L15.3158 15.7052ZM15.0371 15.8275L14.1886 15.2983C14.0239 15.5623 13.9971 15.8395 13.9971 16.0009C13.9971 16.1547 14.0211 16.4505 14.2069 16.7273L15.0371 16.1697L15.8672 15.6122C15.9435 15.7258 15.9713 15.8254 15.9818 15.8715C15.994 15.9248 15.9971 15.9682 15.9971 16.0009C15.9971 16.0339 15.994 16.0748 15.9831 16.1237C15.9734 16.1669 15.9493 16.2545 15.8856 16.3566L15.0371 15.8275ZM15.0371 16.1697L14.2471 16.7829C14.3312 16.8912 14.4263 16.964 14.4285 16.9657C14.458 16.9895 14.4869 17.0109 14.5098 17.0273C14.5569 17.0613 14.6121 17.0986 14.6683 17.1355C14.7825 17.2105 14.9277 17.3012 15.079 17.3908L15.5886 16.5304L16.0981 15.6699C15.9708 15.5945 15.8521 15.5202 15.7661 15.4637C15.7223 15.435 15.6933 15.415 15.6784 15.4043C15.6702 15.3983 15.6736 15.4005 15.6838 15.4088C15.6888 15.4128 15.7022 15.4237 15.7197 15.4398C15.7288 15.448 15.7423 15.4608 15.7583 15.4773C15.7731 15.4925 15.7984 15.5197 15.8271 15.5566L15.0371 16.1697ZM15.5886 16.5304L15.087 17.3955C15.3611 17.5544 15.6017 17.702 15.6259 17.717L16.1519 16.8665L16.6779 16.0161C16.6428 15.9944 16.3853 15.8364 16.0902 15.6653L15.5886 16.5304ZM16.1519 16.8665L15.559 17.6718C15.4952 17.6249 15.2949 17.4675 15.2045 17.1673C15.1022 16.8272 15.2076 16.5446 15.291 16.3989C15.3641 16.271 15.4474 16.1954 15.4677 16.177C15.4838 16.1624 15.4965 16.1522 15.5034 16.1467C15.5106 16.1411 15.515 16.1379 15.5155 16.1376C15.5158 16.1374 15.5088 16.1424 15.4902 16.1543C15.4723 16.1659 15.448 16.1811 15.4153 16.2012C15.3493 16.2416 15.2603 16.2946 15.1392 16.3662L15.6479 17.2272L16.1565 18.0881C16.3824 17.9547 16.5651 17.8459 16.68 17.7636C16.7132 17.7399 16.7605 17.7044 16.81 17.6596C16.8503 17.6232 16.9466 17.5326 17.0271 17.3919C17.1177 17.2334 17.2248 16.9401 17.1196 16.5908C17.0265 16.2813 16.8189 16.1158 16.7448 16.0613L16.1519 16.8665ZM15.6479 17.2272L15.1367 16.3677C14.9757 16.4634 14.8199 16.5593 14.6969 16.6392C14.6368 16.6782 14.5752 16.7195 14.5219 16.7582C14.4962 16.7769 14.4613 16.8029 14.4254 16.8331C14.4213 16.8365 14.3036 16.9294 14.2093 17.0753L15.049 17.6184L15.8886 18.1614C15.8574 18.2098 15.828 18.2457 15.8096 18.2671C15.7901 18.2898 15.773 18.3074 15.7612 18.3191C15.7383 18.342 15.72 18.3575 15.7123 18.364C15.6968 18.3771 15.689 18.3823 15.6965 18.3769C15.7095 18.3675 15.7383 18.3476 15.7864 18.3164C15.8799 18.2557 16.0117 18.1743 16.159 18.0867L15.6479 17.2272ZM15.049 17.6184L14.2713 16.9897C14.1295 17.1651 14.0709 17.3477 14.0449 17.45C14.0147 17.569 14.0015 17.6889 14.0015 17.8017H15.0015H16.0015C16.0015 17.8412 15.9972 17.8878 15.9833 17.9426C15.9761 17.9709 15.9641 18.0104 15.9434 18.0571C15.9237 18.1015 15.8881 18.1711 15.8266 18.2471L15.049 17.6184ZM15.0015 17.8017H14.0015C14.0015 17.9049 14.0094 18.0777 14.0826 18.2712C14.1565 18.4664 14.2658 18.5998 14.3286 18.671L15.0786 18.0096L15.8286 17.3481C15.8321 17.3521 15.9029 17.4305 15.953 17.563C16.0026 17.6938 16.0015 17.7963 16.0015 17.8017H15.0015ZM15.0786 18.0096L14.3609 18.7059C14.4145 18.7612 14.581 18.9338 14.8491 19.0285C15.1485 19.1342 15.4181 19.0938 15.597 19.0421C15.7581 18.9956 15.9065 18.922 16.0185 18.8628C16.1401 18.7986 16.283 18.7161 16.4442 18.6216L15.9384 17.759L15.4326 16.8963C15.2707 16.9913 15.1623 17.0532 15.0843 17.0944C14.9967 17.1407 14.9973 17.1336 15.042 17.1207C15.1045 17.1026 15.2893 17.0629 15.5151 17.1426C15.6163 17.1784 15.6901 17.2262 15.7352 17.2605C15.7572 17.2772 15.7731 17.2913 15.7824 17.2998C15.7871 17.3042 15.7907 17.3076 15.7929 17.3098C15.7951 17.312 15.7963 17.3132 15.7964 17.3133L15.0786 18.0096ZM15.9384 17.759L16.4509 18.6177L17.0142 18.2815L16.5017 17.4228L15.9893 16.5641L15.4259 16.9002L15.9384 17.759ZM16.5017 17.4228H15.5017V18.0951H16.5017H17.5017V17.4228H16.5017ZM16.5017 18.0951H15.5017C15.5017 18.4185 15.5012 18.7183 15.5376 18.9361C15.5594 19.0664 15.6084 19.2711 15.7513 19.4725C15.9 19.6819 16.0806 19.7874 16.1539 19.8286L16.644 18.957L17.1341 18.0853C17.1423 18.0899 17.2725 18.1602 17.3822 18.3148C17.4862 18.4613 17.5078 18.5916 17.5103 18.6066C17.5124 18.6193 17.5081 18.5976 17.5052 18.4975C17.5025 18.4045 17.5017 18.2776 17.5017 18.0951H16.5017ZM16.644 18.957L16.1859 19.8459C16.6493 20.0847 17.2782 20.0634 17.7176 19.6105L16.9998 18.9142L16.2821 18.2179C16.3977 18.0987 16.5517 18.023 16.7143 18.0028C16.8732 17.9831 17.0079 18.0195 17.1022 18.0681L16.644 18.957ZM16.9998 18.9142L17.7176 19.6105L17.7947 19.531L17.0769 18.8347L16.3592 18.1384L16.2821 18.2179L16.9998 18.9142ZM17.0769 18.8347H18.0769V18.144H17.0769H16.0769V18.8347H17.0769ZM17.0769 18.144H18.0769C18.0769 17.9538 18.0798 17.7937 18.0837 17.6858C18.0857 17.6297 18.0876 17.5985 18.0885 17.5876C18.0893 17.5779 18.0881 17.5977 18.0827 17.6303C18.0812 17.6396 18.0721 17.6969 18.0484 17.769C18.0388 17.7981 18.007 17.8934 17.9369 18.0008C17.9011 18.0557 17.8295 18.1541 17.7099 18.2461C17.5827 18.344 17.3742 18.4533 17.1006 18.4533V17.4533V16.4533C16.5571 16.4533 16.296 16.8556 16.2621 16.9076C16.1913 17.0161 16.1587 17.1131 16.1484 17.1444C16.1232 17.221 16.1127 17.285 16.1097 17.3031C16.1013 17.3534 16.0973 17.3992 16.0953 17.4232C16.0906 17.4797 16.0874 17.5467 16.085 17.6136C16.08 17.7517 16.0769 17.9369 16.0769 18.144H17.0769ZM17.1006 17.4533V18.4533C17.0395 18.4533 16.9896 18.4477 16.9573 18.443C16.9234 18.4381 16.8952 18.4322 16.8748 18.4274C16.8353 18.4182 16.8042 18.4084 16.7868 18.4026C16.7518 18.391 16.7255 18.38 16.7152 18.3756C16.6923 18.3659 16.6765 18.3581 16.6745 18.3571C16.6676 18.3537 16.6679 18.3536 16.6797 18.36C16.7008 18.3713 16.7364 18.391 16.7853 18.4188C16.8818 18.4734 17.0144 18.5505 17.1567 18.6356L17.6699 17.7773L18.183 16.919C18.0288 16.8268 17.8828 16.7419 17.7717 16.6789C17.7169 16.6478 17.6664 16.6197 17.6261 16.5981C17.6071 16.5879 17.5827 16.575 17.5581 16.5629C17.5473 16.5576 17.5244 16.5464 17.4962 16.5344C17.4833 16.5289 17.4548 16.5171 17.4182 16.5049C17.3998 16.4988 17.3681 16.4888 17.3279 16.4794C17.2975 16.4724 17.212 16.4533 17.1006 16.4533V17.4533ZM17.6699 17.7773L17.1614 18.6384C17.3128 18.7277 17.4486 18.807 17.5643 18.8689C17.6711 18.9261 17.8151 18.9988 17.9725 19.0457C18.1485 19.0983 18.4075 19.139 18.6981 19.0462C18.9599 18.9625 19.1282 18.8042 19.1882 18.7474L18.5 18.0218L17.8119 17.2962C17.8121 17.296 17.8176 17.2908 17.8272 17.2827C17.8368 17.2745 17.853 17.2614 17.8749 17.2462C17.92 17.2147 17.9921 17.1721 18.0893 17.1411C18.3057 17.0719 18.481 17.1103 18.5443 17.1292C18.5891 17.1426 18.5915 17.1503 18.5085 17.1059C18.4345 17.0662 18.3324 17.0072 18.1783 16.9162L17.6699 17.7773ZM18.5 18.0218L19.1756 18.7591C19.6123 18.359 19.7425 17.7061 19.4236 17.1581L18.5593 17.6612L17.6951 18.1642C17.6193 18.034 17.5804 17.8651 17.6098 17.6872C17.639 17.5113 17.7268 17.374 17.8245 17.2845L18.5 18.0218ZM18.5593 17.6612L19.4236 17.1581C19.3256 16.9897 19.1988 16.8805 19.1523 16.841C19.0869 16.7855 19.0171 16.735 18.9538 16.6916C18.8259 16.6041 18.6572 16.5002 18.4516 16.3786L17.9426 17.2394L17.4337 18.1002C17.6313 18.217 17.7531 18.2934 17.8239 18.3419C17.8599 18.3665 17.8665 18.373 17.8571 18.365C17.8518 18.3605 17.8337 18.3449 17.8097 18.3193C17.7884 18.2966 17.7416 18.2441 17.6951 18.1642L18.5593 17.6612ZM17.9426 17.2394L18.4525 16.3792C18.2014 16.2303 18.0996 16.1678 18.0614 16.1413C18.0555 16.1372 18.0678 16.1453 18.0887 16.1628C18.1013 16.1733 18.1673 16.2281 18.2345 16.3213C18.2896 16.3978 18.4713 16.6731 18.4023 17.0637C18.329 17.4785 18.0376 17.6795 17.9343 17.7404L17.4268 16.8788L16.9192 16.0171C16.8055 16.0841 16.5076 16.2923 16.4328 16.7158C16.3623 17.1152 16.5474 17.401 16.6118 17.4904C16.7357 17.6625 16.899 17.769 16.9211 17.7844C17.0326 17.8618 17.2095 17.9673 17.4328 18.0996L17.9426 17.2394ZM17.4268 16.8788L17.9217 17.7477C18.1589 17.6126 18.4303 17.4504 18.6502 17.3144C18.76 17.2465 18.8618 17.1821 18.9427 17.1289C18.9825 17.1027 19.0231 17.0754 19.0595 17.0496C19.0682 17.0434 19.1604 16.9802 19.2415 16.8966L18.5238 16.2003L17.806 15.504C17.8335 15.4757 17.8563 15.4558 17.8664 15.4471C17.8782 15.4369 17.8874 15.4297 17.8919 15.4262C17.9005 15.4194 17.9044 15.4168 17.9001 15.4199C17.892 15.4256 17.874 15.438 17.8437 15.4579C17.7843 15.497 17.6998 15.5506 17.5982 15.6134C17.3957 15.7387 17.1452 15.8883 16.9318 16.0099L17.4268 16.8788ZM18.5238 16.2003L19.2415 16.8966C20.0992 16.0124 19.3491 14.7052 18.2984 14.7052V15.7052V16.7052C17.9983 16.7052 17.7654 16.5176 17.6657 16.2986C17.5643 16.0762 17.571 15.7463 17.806 15.504L18.5238 16.2003ZM18.2984 15.7052V14.7052C18.1532 14.7052 18.0412 14.7378 18.0168 14.7447C17.9726 14.7572 17.9366 14.7704 17.915 14.7787C17.8709 14.7957 17.8311 14.8138 17.8033 14.8268C17.7448 14.8543 17.6794 14.888 17.616 14.9217C17.4862 14.9907 17.3246 15.0816 17.16 15.1777L17.6639 16.0414L18.1679 16.9051C18.3176 16.8178 18.4554 16.7406 18.5554 16.6874C18.6069 16.66 18.6389 16.644 18.6536 16.6371C18.6624 16.6329 18.6531 16.6377 18.6326 16.6455C18.6229 16.6493 18.597 16.6591 18.561 16.6692C18.5426 16.6744 18.5133 16.6821 18.4765 16.6889C18.4434 16.6951 18.3797 16.7052 18.2984 16.7052V15.7052ZM17.6639 16.0414L17.1554 15.1803L16.5862 15.5165L17.0947 16.3776L17.6032 17.2386L18.1725 16.9024L17.6639 16.0414ZM17.0947 16.3776L18.0946 16.3605L18.0827 15.6637L17.0828 15.6808L16.083 15.6978L16.0948 16.3946L17.0947 16.3776ZM17.0828 15.6808L18.0827 15.6654C18.0796 15.4629 18.0734 15.2727 18.066 15.1254C18.0624 15.0527 18.0583 14.9843 18.0536 14.9275C18.0513 14.9001 18.0482 14.8665 18.0438 14.8326C18.0417 14.8161 18.0381 14.7903 18.0325 14.7605C18.0301 14.7474 18.0159 14.667 17.9795 14.5733L17.0473 14.935L16.115 15.2968C16.0942 15.2433 16.0829 15.1999 16.078 15.1804C16.0723 15.1573 16.0686 15.1389 16.0666 15.128C16.0626 15.1065 16.0606 15.0914 16.0601 15.0876C16.059 15.079 16.0593 15.0792 16.0604 15.0931C16.0626 15.1188 16.0654 15.1627 16.0685 15.2245C16.0745 15.3462 16.0801 15.5135 16.083 15.6962L17.0828 15.6808ZM17.0473 14.935L17.9623 14.5316C17.8079 14.1816 17.5172 14.0133 17.4016 13.9537C17.2488 13.8749 17.0338 13.8006 16.7864 13.8006V14.8006V15.8006C16.6397 15.8006 16.5404 15.7598 16.4854 15.7315C16.4513 15.7139 16.4029 15.6849 16.3489 15.6376C16.3024 15.5968 16.2039 15.5009 16.1323 15.3385L17.0473 14.935ZM16.7864 14.8006L16.8719 13.8042C16.432 13.7665 16.0874 13.9688 15.8789 14.1837L16.5966 14.88L17.3144 15.5763C17.2126 15.6813 16.9984 15.8225 16.7008 15.7969L16.7864 14.8006Z" fill="#23D493" mask="url(#path-10-inside-4_1051_62)"/>
</svg>
