<svg width="27" height="27" viewBox="0 0 27 27" fill="none" xmlns="http://www.w3.org/2000/svg">
<path d="M19.2383 0.5C20.6188 0.500201 21.7383 1.61941 21.7383 3V26.5H5.26172V3C5.26172 1.61929 6.38101 0.5 7.76172 0.5H19.2383Z" stroke="white"/>
<path d="M25 8.83325C25.8284 8.83325 26.5 9.50482 26.5 10.3333V25.0002C26.4998 25.8285 25.8283 26.5002 25 26.5002H21.9287V10.3333C21.9287 9.50482 22.6003 8.83325 23.4287 8.83325H25Z" stroke="white"/>
<path d="M2 12.4048C1.17157 12.4048 0.5 13.0764 0.5 13.9048V25.0005C0.500251 25.8287 1.17173 26.5005 2 26.5005H5.07129V13.9048L5.06348 13.7515C4.98668 12.9951 4.34795 12.4048 3.57129 12.4048H2Z" stroke="white"/>
<rect x="9.83301" y="5.07153" width="7.33333" height="1.38095" rx="0.690476" stroke="white"/>
<rect x="9.83301" y="9.83325" width="7.33333" height="1.38095" rx="0.690476" stroke="white"/>
<rect x="9.83301" y="14.5952" width="7.33333" height="1.38095" rx="0.690476" stroke="white"/>
<rect x="9.83301" y="19.3572" width="7.33333" height="1.38095" rx="0.690476" stroke="white"/>
</svg>
