<svg width="28" height="24" viewBox="0 0 28 24" fill="none" xmlns="http://www.w3.org/2000/svg">
<path d="M14.001 6.72974C14.1286 6.72978 14.2527 6.77661 14.3525 6.86255V6.86353L23.1777 14.6477V23.0588C23.1777 23.2712 23.0986 23.4745 22.959 23.6243C22.8192 23.7741 22.6296 23.8586 22.4326 23.8586L17.0654 23.842C16.9676 23.842 16.8707 23.8217 16.7803 23.7815C16.6898 23.7413 16.6074 23.6821 16.5381 23.6077C16.469 23.5334 16.4143 23.4451 16.377 23.3479C16.3395 23.2505 16.32 23.1457 16.3203 23.0403V18.1292C16.3202 17.9061 16.2374 17.6916 16.0898 17.5334C15.9422 17.3754 15.7416 17.2864 15.5322 17.2864H12.4658C12.2564 17.2864 12.0559 17.3754 11.9082 17.5334C11.7606 17.6916 11.6778 17.9061 11.6777 18.1292V23.0442C11.6776 23.2559 11.5989 23.459 11.46 23.6086C11.321 23.7582 11.1328 23.8428 10.9365 23.844L5.56738 23.8586C5.37032 23.8586 5.18085 23.7741 5.04102 23.6243C4.90131 23.4744 4.82232 23.2712 4.82227 23.0588V14.6526L13.6484 6.86353C13.7484 6.77714 13.873 6.72974 14.001 6.72974ZM20.3242 0.901611H23.0078C23.1539 0.901703 23.2946 0.96419 23.3984 1.07544C23.5023 1.18681 23.5605 1.33829 23.5605 1.49634V8.61743L23.5684 8.62427L27.5732 12.1624C27.6298 12.2117 27.6772 12.273 27.7119 12.342C27.7466 12.411 27.7681 12.4866 27.7754 12.5647C27.7827 12.6428 27.7761 12.722 27.7549 12.7971C27.7337 12.8721 27.6987 12.9418 27.6523 13.0022L26.4307 14.594C26.3843 14.6542 26.3269 14.704 26.2627 14.7405C26.1986 14.7768 26.1286 14.7996 26.0566 14.8069C25.9845 14.8142 25.9111 14.8063 25.8418 14.7834C25.8073 14.772 25.7739 14.7568 25.7422 14.7385L25.6523 14.6731L14.3818 4.72583L14.2959 4.66333C14.2063 4.60994 14.1048 4.58133 14.001 4.5813C13.8622 4.5813 13.7278 4.63285 13.6201 4.72583L2.34961 14.6731C2.2935 14.7227 2.22856 14.7597 2.15918 14.7825C2.08991 14.8052 2.01736 14.8133 1.94531 14.8059C1.8731 14.7984 1.80244 14.7761 1.73828 14.7395C1.67417 14.7029 1.61757 14.6524 1.57129 14.592L0.349609 13.0012V13.0002C0.303237 12.9401 0.267542 12.8709 0.246094 12.7961C0.224688 12.7214 0.217733 12.6425 0.224609 12.5647C0.231525 12.4869 0.252027 12.411 0.286133 12.342C0.320253 12.273 0.366868 12.212 0.422852 12.1624L12.5518 1.45825C12.9594 1.09891 13.4707 0.902678 13.998 0.902588C14.5256 0.902588 15.0375 1.09875 15.4453 1.45825L19.7354 5.24048L19.7715 5.27271V1.49634C19.7715 1.33825 19.8297 1.18682 19.9336 1.07544C20.0374 0.964145 20.178 0.901652 20.3242 0.901611Z" fill="white" stroke="#1D282F" stroke-width="0.0434028"/>
</svg>
