<svg width="18" height="12" viewBox="0 0 18 12" fill="none" xmlns="http://www.w3.org/2000/svg">
<path d="M17.5686 9.99774C16.8966 9.92272 16.2528 9.66953 15.759 9.28194C15.3182 8.93498 14.69 8.92873 14.2524 9.28194C13.0679 10.2322 10.9019 10.2322 9.69854 9.23506C9.27659 8.88497 8.66711 8.95061 8.23891 9.29132C7.05121 10.2322 4.89771 10.229 3.70063 9.23818C3.27869 8.8881 2.65983 8.95999 2.22851 9.3007C1.74405 9.68204 1.10331 9.92897 0.425073 10.0009C0.178156 10.0259 0 10.2447 0 10.4916V11.4981C0 11.7825 0.237541 12.0232 0.521964 11.9982C1.42212 11.9201 2.27539 11.6419 3.00364 11.1886C4.76957 12.2702 7.28562 12.2545 9.00467 11.1886C10.7706 12.2702 13.2867 12.2545 15.0057 11.1886C15.7339 11.6325 16.5966 11.9169 17.478 11.9951C17.7624 12.0201 18 11.7794 18 11.495V10.5072C18.0031 10.2572 17.8218 10.0259 17.5686 9.99774ZM17.5686 5.49667C16.8966 5.42165 16.2528 5.16847 15.759 4.78087C15.3182 4.43392 14.69 4.42766 14.2524 4.78087C13.0679 5.7311 10.9019 5.7311 9.69854 4.73399C9.27659 4.3839 8.66711 4.44954 8.23891 4.79025C7.05121 5.7311 4.89771 5.72797 3.70063 4.73711C3.27869 4.38703 2.65983 4.45892 2.22851 4.79963C1.74405 5.18097 1.10331 5.4279 0.425073 5.49979C0.178156 5.5248 0 5.7436 0 5.99054V6.99702C0 7.28147 0.237541 7.52215 0.521964 7.49714C1.42212 7.419 2.27539 7.14081 3.00364 6.68758C4.76957 7.76908 7.28562 7.75345 9.00467 6.68758C10.7706 7.76908 13.2867 7.75345 15.0057 6.68758C15.7339 7.13143 16.5966 7.41587 17.478 7.49402C17.7624 7.51902 18 7.27834 18 6.9939V6.00617C18.0031 5.75611 17.8218 5.5248 17.5686 5.49667ZM17.5686 0.9956C16.8966 0.917457 16.2528 0.667397 15.759 0.279805C15.3182 -0.0671522 14.69 -0.0734037 14.2524 0.279805C13.0679 1.23003 10.9019 1.23003 9.69854 0.232919C9.27659 -0.117164 8.66711 -0.0515234 8.23891 0.289182C7.05121 1.23003 4.89771 1.2269 3.70063 0.236045C3.27869 -0.114038 2.65983 -0.0421463 2.22851 0.29856C1.74405 0.6799 1.10331 0.926834 0.425073 0.998726C0.178156 1.02373 0 1.24253 0 1.48947V2.49596C0 2.7804 0.237541 3.02108 0.521964 2.99607C1.42212 2.91793 2.27539 2.63974 3.00364 2.18651C4.76957 3.26801 7.28562 3.25239 9.00467 2.18651C10.7706 3.26801 13.2867 3.25239 15.0057 2.18651C15.7339 2.63036 16.5966 2.91481 17.478 2.99295C17.7624 3.01796 18 2.77727 18 2.49283V1.5051C18.0031 1.25504 17.8218 1.02373 17.5686 0.9956Z" fill="#FAFAFA"/>
</svg>
