<svg width="24" height="26" viewBox="0 0 24 26" fill="none" xmlns="http://www.w3.org/2000/svg">
<path d="M12 13C15.7875 13 18.8571 10.0902 18.8571 6.5C18.8571 2.90977 15.7875 0 12 0C8.2125 0 5.14286 2.90977 5.14286 6.5C5.14286 10.0902 8.2125 13 12 13ZM17.1321 14.6555L14.5714 24.375L12.8571 17.4688L14.5714 14.625H9.42857L11.1429 17.4688L9.42857 24.375L6.86786 14.6555C3.04821 14.8281 0 17.7887 0 21.45V23.5625C0 24.9082 1.15179 26 2.57143 26H21.4286C22.8482 26 24 24.9082 24 23.5625V21.45C24 17.7887 20.9518 14.8281 17.1321 14.6555Z" fill="#FAFAFA"/>
</svg>
