<svg width="22" height="16" viewBox="0 0 22 16" fill="none" xmlns="http://www.w3.org/2000/svg">
<path d="M21.3089 7.46273C19.3441 3.5661 15.4542 0.929688 11.0002 0.929688C6.54622 0.929688 2.65527 3.56795 0.691497 7.46309C0.608614 7.62974 0.56543 7.81385 0.56543 8.00058C0.56543 8.18731 0.608614 8.37142 0.691497 8.53806C2.65636 12.4347 6.54622 15.0711 11.0002 15.0711C15.4542 15.0711 19.3452 12.4328 21.3089 8.53769C21.3918 8.37105 21.435 8.18694 21.435 8.00021C21.435 7.81348 21.3918 7.62937 21.3089 7.46273ZM11.0002 13.3034C9.96831 13.3034 8.95958 12.9924 8.10158 12.4097C7.24358 11.827 6.57485 10.9988 6.17996 10.0298C5.78507 9.06077 5.68175 7.99451 5.88306 6.96583C6.08438 5.93714 6.58129 4.99223 7.31095 4.25059C8.04062 3.50894 8.97027 3.00388 9.98235 2.79926C10.9944 2.59464 12.0435 2.69966 12.9968 3.10103C13.9502 3.50241 14.765 4.18211 15.3383 5.05419C15.9116 5.92627 16.2176 6.95155 16.2176 8.00039C16.2179 8.69689 16.0832 9.38663 15.8211 10.0302C15.5591 10.6737 15.1748 11.2585 14.6902 11.751C14.2057 12.2435 13.6304 12.6341 12.9972 12.9004C12.3641 13.1668 11.6855 13.3038 11.0002 13.3034ZM11.0002 4.46504C10.6898 4.46945 10.3813 4.5164 10.0832 4.60461C10.3289 4.94404 10.4468 5.36173 10.4156 5.78194C10.3843 6.20215 10.2059 6.59706 9.91271 6.89504C9.61954 7.19303 9.23101 7.37436 8.81758 7.40615C8.40415 7.43793 7.9932 7.31808 7.65926 7.06831C7.46911 7.78039 7.50343 8.53515 7.75741 9.22635C8.01139 9.91756 8.47223 10.5104 9.07507 10.9215C9.67791 11.3325 10.3924 11.5411 11.118 11.5178C11.8435 11.4945 12.5436 11.2405 13.1197 10.7916C13.6959 10.3427 14.119 9.72145 14.3295 9.01533C14.5401 8.30921 14.5274 7.55375 14.2934 6.8553C14.0594 6.15684 13.6158 5.55056 13.0251 5.12177C12.4343 4.69299 11.7261 4.4633 11.0002 4.46504Z" fill="white"/>
</svg>
