<svg width="26" height="26" viewBox="0 0 26 26" fill="none" xmlns="http://www.w3.org/2000/svg">
<circle cx="13" cy="13" r="12.7476" stroke="#257FFF" stroke-width="0.504854"/>
<path d="M7.04363 7.05085C6.56332 7.19144 6.15417 7.64375 6.03558 8.15719C6.00593 8.30389 6 8.59117 6 9.75862V11.1889H12.997H19.9941L19.9881 9.67305L19.9822 8.1633L19.917 7.99216C19.745 7.55207 19.4545 7.24034 19.0335 7.06919L18.8911 7.00807L13.0563 7.00196C7.52986 6.99584 7.20966 7.00196 7.04363 7.05085Z" fill="#257FFF"/>
<path d="M6 12.3252C6 12.9243 6.02372 13.0771 6.16603 13.3705C6.32613 13.7066 6.61669 13.9756 6.99619 14.1162L7.19187 14.1895L12.8725 14.1956C16.7446 14.2017 18.6184 14.1956 18.7488 14.1712C18.986 14.1345 19.3299 13.9695 19.5019 13.8105C19.6679 13.6577 19.8162 13.4316 19.9051 13.1993C19.9704 13.0159 19.9763 12.967 19.9881 12.3925L20 11.7812H12.997H6V12.3252ZM15.2385 12.4842C15.3689 12.6186 15.3393 12.8509 15.1792 12.9487C15.108 12.9915 14.7937 12.9976 11.2478 12.9976C7.70182 12.9976 7.38162 12.9976 7.31639 12.9487C7.15629 12.8509 7.13257 12.6248 7.25709 12.4842L7.33418 12.4047H11.2478H15.1614L15.2385 12.4842ZM16.9877 12.4842C17.1182 12.6186 17.0885 12.8509 16.9284 12.9487C16.8691 12.9854 16.7802 12.9976 16.4956 12.9976C16.1042 12.9976 16.0212 12.9732 15.956 12.8509C15.8907 12.7164 15.9085 12.5759 15.9975 12.4842L16.0745 12.4047H16.4896H16.9047L16.9877 12.4842ZM18.737 12.4842C18.8674 12.6186 18.8378 12.8509 18.6777 12.9487C18.6184 12.9854 18.5294 12.9976 18.2448 12.9976C17.8535 12.9976 17.7704 12.9732 17.7052 12.8509C17.64 12.7164 17.6578 12.5759 17.7467 12.4842L17.8238 12.4047H18.2389H18.654L18.737 12.4842Z" fill="#257FFF"/>
<path d="M8.17016 14.8492C8.05749 14.9226 7.86774 15.2159 7.81437 15.4115C7.74915 15.6316 7.75508 15.9922 7.83216 16.2734C7.86774 16.3956 7.97448 16.7135 8.06935 16.9824C8.27689 17.557 8.33026 17.7403 8.33026 17.9482C8.33026 18.156 8.28282 18.3027 8.17609 18.431C8.06342 18.5655 8.03377 18.6694 8.06342 18.7917C8.09307 18.9139 8.20573 18.9995 8.33619 18.9995C8.48443 18.9995 8.65639 18.8283 8.78091 18.5655C9.00031 18.101 8.96473 17.7037 8.62674 16.8052C8.29468 15.9128 8.27689 15.6316 8.53187 15.3199C8.63267 15.1976 8.64453 15.0692 8.57338 14.9531C8.4785 14.7942 8.3184 14.7575 8.17016 14.8492Z" fill="#257FFF"/>
<path d="M10.4885 14.8492C10.3758 14.9226 10.1861 15.2159 10.1327 15.4115C10.0675 15.6255 10.0793 15.9861 10.1505 16.2734C10.1861 16.3956 10.2869 16.7135 10.3877 16.9824C10.5952 17.557 10.6486 17.7403 10.6486 17.9482C10.6486 18.156 10.6011 18.3027 10.4944 18.431C10.3817 18.5655 10.3521 18.6694 10.3817 18.7917C10.4114 18.9139 10.5241 18.9995 10.6545 18.9995C10.8027 18.9995 10.9747 18.8283 11.0992 18.5655C11.3186 18.101 11.2831 17.6914 10.9391 16.7807C10.613 15.925 10.5952 15.6316 10.8502 15.3199C10.951 15.1976 10.9629 15.0692 10.8917 14.9531C10.8027 14.7942 10.6426 14.7575 10.4885 14.8492Z" fill="#257FFF"/>
<path d="M12.8136 14.8498C12.7069 14.917 12.523 15.2043 12.4578 15.3938C12.3451 15.73 12.4104 16.2006 12.6535 16.8485C13.0211 17.8204 13.0567 18.1382 12.8077 18.4255C12.6831 18.5722 12.6535 18.6883 12.7009 18.8106C12.7484 18.9328 12.8432 18.994 12.9678 18.994C13.1931 18.994 13.4777 18.5722 13.537 18.1627C13.5845 17.8082 13.5192 17.4964 13.2524 16.7691C13.0389 16.1884 12.9915 16.0172 12.9915 15.7911C12.9915 15.6016 13.0389 15.4671 13.1694 15.3082C13.2702 15.186 13.282 15.0576 13.2109 14.9415C13.1219 14.7948 12.9618 14.7581 12.8136 14.8498Z" fill="#257FFF"/>
<path d="M16.5966 14.88L16.5077 14.9595L16.4958 15.6685L16.4839 16.3714L15.9384 16.0475C15.636 15.8702 15.3573 15.7174 15.3158 15.7052C15.215 15.6869 15.0905 15.7419 15.0371 15.8275C14.9837 15.913 14.9837 16.0903 15.0371 16.1697C15.0608 16.2003 15.3099 16.3653 15.5886 16.5304C15.8732 16.6954 16.1222 16.8482 16.1519 16.8665C16.1934 16.8971 16.1341 16.9399 15.6479 17.2272C15.3395 17.4105 15.0727 17.5817 15.049 17.6184C15.0193 17.655 15.0015 17.7284 15.0015 17.8017C15.0015 17.8995 15.0193 17.9423 15.0786 18.0096C15.2209 18.1563 15.2921 18.1379 15.9384 17.759L16.5017 17.4228V18.0951C16.5017 18.8225 16.5136 18.8836 16.644 18.957C16.7745 19.0242 16.9109 19.0059 16.9998 18.9142L17.0769 18.8347V18.144C17.0769 17.7467 17.0888 17.4533 17.1006 17.4533C17.1125 17.4533 17.3734 17.6 17.6699 17.7773C18.2806 18.1379 18.3518 18.1624 18.5 18.0218C18.6068 17.924 18.6305 17.7834 18.5593 17.6612C18.5238 17.6 18.3459 17.4778 17.9426 17.2394C17.4683 16.9582 17.3853 16.9032 17.4268 16.8788C17.8774 16.6221 18.4704 16.2553 18.5238 16.2003C18.7016 16.0169 18.5593 15.7052 18.2984 15.7052C18.2628 15.7052 17.9782 15.858 17.6639 16.0414L17.0947 16.3776L17.0828 15.6808C17.0769 15.2957 17.0591 14.9656 17.0473 14.935C17.0176 14.8678 16.8872 14.8006 16.7864 14.8006C16.7152 14.7945 16.65 14.825 16.5966 14.88Z" fill="#257FFF"/>
</svg>
