<svg width="26" height="26" viewBox="0 0 26 26" fill="none" xmlns="http://www.w3.org/2000/svg">
<circle cx="13" cy="13" r="12.7476" stroke="#FB2C36" stroke-width="0.504854"/>
<path d="M20.8199 17.0316C21.3326 17.9064 20.6891 19 19.665 19H6.33484C5.30881 19 4.6682 17.9047 5.17992 17.0316L11.8451 5.65584C12.3581 4.78059 13.6429 4.78218 14.1549 5.65584L20.8199 17.0316ZM13 14.6797C12.2943 14.6797 11.7222 15.2428 11.7222 15.9375C11.7222 16.6322 12.2943 17.1953 13 17.1953C13.7057 17.1953 14.2778 16.6322 14.2778 15.9375C14.2778 15.2428 13.7057 14.6797 13 14.6797ZM11.7869 10.1585L11.9929 13.8773C12.0026 14.0513 12.1487 14.1875 12.3258 14.1875H13.6743C13.8513 14.1875 13.9974 14.0513 14.0071 13.8773L14.2131 10.1585C14.2236 9.97055 14.0715 9.8125 13.8803 9.8125H12.1197C11.9285 9.8125 11.7765 9.97055 11.7869 10.1585Z" fill="#FB2C36"/>
</svg>
