<svg width="28" height="26" viewBox="0 0 28 26" fill="none" xmlns="http://www.w3.org/2000/svg">
<path d="M25.165 16.5362C25.1737 16.4398 25.2 16.3484 25.2 16.2519C25.2 14.4597 23.9444 13.0025 22.4 13.0025C21.8487 13.0025 21.3412 13.1955 20.9081 13.5103C20.1381 11.5403 18.4363 10.1593 16.45 10.1593C13.7463 10.1593 11.55 12.703 11.55 15.8457C11.55 15.998 11.5806 16.1402 11.5894 16.2874C9.41937 16.4753 7.7 18.5569 7.7 21.126C7.7 23.8168 9.58125 26 11.9 26H23.8C26.1187 26 28 23.8168 28 21.126C28 18.9885 26.81 17.1963 25.165 16.5362ZM6.335 15.3888C4.42312 13.1701 4.42312 9.56532 6.335 7.35169C8.24687 5.13298 11.3531 5.13298 13.265 7.35169C13.6894 7.84417 14.0044 8.41281 14.2406 9.01191C14.6694 8.82406 15.12 8.70728 15.5838 8.63113L16.8875 4.11756C17.0625 3.51338 16.5681 2.94474 16.0475 3.14275L12.2063 4.63035L10.3906 0.426479C10.15 -0.14216 9.45 -0.14216 9.205 0.426479L7.39375 4.63035L3.54812 3.14275C3.03187 2.94474 2.5375 3.51845 2.70813 4.11756L3.99 8.57528L0.3675 10.6823C-0.1225 10.9666 -0.1225 11.7739 0.3675 12.0582L3.99 14.1601L2.70813 18.6178C2.53312 19.222 3.0275 19.7907 3.54812 19.5927L6.8775 18.3081C7.14437 17.6786 7.49 17.1049 7.91 16.6073C7.33687 16.3331 6.79875 15.927 6.335 15.3888ZM6.125 11.3677C6.125 13.4392 7.40687 15.1654 9.09562 15.5462C9.44562 15.3076 9.80875 15.0994 10.1981 14.9522C10.4344 12.703 11.5544 10.7635 13.1469 9.62117C12.5694 8.14372 11.2875 7.10799 9.8 7.10799C7.77437 7.10799 6.125 9.01699 6.125 11.3677Z" fill="#FAFAFA"/>
</svg>
