<svg width="16" height="14" viewBox="0 0 16 14" fill="none" xmlns="http://www.w3.org/2000/svg">
<path d="M4.89666 6.9996H0.499978C0.22499 6.9996 0 7.22463 0 7.49966V8.49977C0 8.77481 0.22499 8.99983 0.499978 8.99983H4.94354C5.44039 8.99983 5.90599 9.3405 5.98724 9.83118C6.09036 10.4562 5.60913 11.0001 4.99978 11.0001C4.55918 11.0001 4.18419 10.7125 4.04982 10.3156C3.9842 10.1187 3.78109 9.99995 3.57485 9.99995H2.54989C2.24365 9.99995 1.99679 10.275 2.05304 10.575C2.32177 11.9533 3.54047 13.0003 4.99666 13.0003C6.78096 13.0003 8.2059 11.4345 7.97153 9.60615C7.78091 8.09348 6.41847 6.9996 4.89666 6.9996ZM0.499978 5.99949H10.9995C12.8651 5.99949 14.3369 4.2868 13.9306 2.3522C13.6932 1.22082 12.7776 0.305094 11.6464 0.0675674C9.9152 -0.294974 8.36214 0.845781 8.0559 2.42721C7.99653 2.72724 8.24652 2.99915 8.54963 2.99915H9.57459C9.78395 2.99915 9.98394 2.88039 10.0496 2.68349C10.1839 2.28657 10.5589 1.99904 10.9995 1.99904C11.6057 1.99904 12.0901 2.54285 11.987 3.16792C11.9057 3.6586 11.4433 3.99926 10.9433 3.99926H0.499978C0.22499 3.99926 0 4.22429 0 4.49932V5.49943C0 5.77447 0.22499 5.99949 0.499978 5.99949ZM12.4995 6.9996H7.6153C8.21839 7.51841 8.65275 8.21224 8.85899 8.99983H12.4995C13.3275 8.99983 13.9994 9.67178 13.9994 10.5C13.9994 11.3282 13.3275 12.0002 12.4995 12.0002C11.9401 12.0002 11.4589 11.6908 11.1995 11.2376C11.1089 11.0813 10.9277 11.0001 10.7464 11.0001H9.69021C9.3496 11.0001 9.09648 11.3376 9.2121 11.6595C9.76833 13.2409 11.4151 14.3098 13.2557 13.9191C14.5431 13.6472 15.6024 12.619 15.9024 11.3345C16.4368 9.04671 14.7025 6.9996 12.4995 6.9996Z" fill="#FAFAFA"/>
</svg>
