<svg width="33" height="25" viewBox="0 0 33 25" fill="none" xmlns="http://www.w3.org/2000/svg">
<path d="M29.0714 0L33 10.0999L27.2307 10.0998L24.3571 0H29.0714ZM21.2143 0L24.0351 10.0998H9.1065L11.7857 0H21.2143ZM3.92857 0H8.64286L5.76927 10.0998H0L3.92857 0ZM0 11.5642H5.76927L12.5714 24.8612C12.6574 25.0588 7.98891 25.0269 7.85714 24.8612L0 11.5642ZM9.1065 11.7584H24.0351L18.8571 24.8612C18.7999 25.0142 14.2001 25.0142 14.1429 24.8612L9.1065 11.7584ZM20.4286 24.8612L27.2307 11.7584L33 11.5642L25.1429 24.8612C25.0111 25.0333 20.3426 25.0588 20.4286 24.8612Z" fill="#00AA6F"/>
</svg>
