<svg width="19" height="18" viewBox="0 0 19 18" fill="none" xmlns="http://www.w3.org/2000/svg">
<path d="M12.803 9.0666L17.8065 4.0631C18.4205 3.4491 18.4205 2.4536 17.8065 1.8391L16.6945 0.727102C16.0805 0.113102 15.085 0.113102 14.4705 0.727102L9.46699 5.7306L4.46349 0.727102C3.84949 0.113102 2.85399 0.113102 2.23949 0.727102L1.12749 1.8391C0.513492 2.4531 0.513492 3.4486 1.12749 4.0631L6.13099 9.0666L1.12749 14.0701C0.513492 14.6841 0.513492 15.6796 1.12749 16.2941L2.23949 17.4061C2.85349 18.0201 3.84949 18.0201 4.46349 17.4061L9.46699 12.4026L14.4705 17.4061C15.0845 18.0201 16.0805 18.0201 16.6945 17.4061L17.8065 16.2941C18.4205 15.6801 18.4205 14.6846 17.8065 14.0701L12.803 9.0666Z" fill="#A6A6A6"/>
</svg>
